<?xml version="1.0" standalone="no"?>
<!DOCTYPE svg PUBLIC "-//W3C//DTD SVG 20010904//EN"
 "http://www.w3.org/TR/2001/REC-SVG-20010904/DTD/svg10.dtd">
<svg version="1.0" xmlns="http://www.w3.org/2000/svg"
 width="700.000000pt" height="700.000000pt" viewBox="0 0 700.000000 700.000000"
 preserveAspectRatio="xMidYMid meet">
<metadata>
Created by potrace 1.14, written by Peter Selinger 2001-2017
</metadata>
<g transform="translate(0.000000,700.000000) scale(0.100000,-0.100000)"
fill="#000000" stroke="none">
<path d="M1365 4979 c-76 -23 -97 -34 -166 -84 -250 -178 -264 -557 -30 -766
103 -92 215 -130 361 -124 391 17 604 469 371 790 -60 84 -138 141 -238 177
-81 29 -218 33 -298 7z"/>
<path d="M5362 4980 c-155 -45 -280 -164 -332 -316 -64 -183 -19 -377 119
-515 105 -105 233 -154 381 -145 228 14 414 176 460 401 13 62 8 173 -10 235
-42 148 -167 278 -317 332 -80 29 -216 32 -301 8z"/>
<path d="M3378 1985 c-114 -29 -233 -114 -298 -215 -102 -160 -102 -381 1
-541 94 -148 273 -237 447 -225 140 10 252 63 343 165 171 190 170 473 -1 664
-122 135 -317 195 -492 152z"/>
</g>
</svg>
